<?xml version="1.0" encoding="UTF-8" standalone="no"?>
<svg
   width="16"
   height="16"
   fill="currentColor"
   class="bi bi-ethernet"
   viewBox="0 0 16 16"
   version="1.1"
   id="svg894"
   xmlns="http://www.w3.org/2000/svg"
   xmlns:svg="http://www.w3.org/2000/svg">
  <defs
     id="defs898">
    <rect
       x="-56.36969"
       y="-52.635612"
       width="120.69066"
       height="111.0914"
       id="rect29884" />
    <rect
       x="-12.714117"
       y="-12.311756"
       width="35.541212"
       height="37.820326"
       id="rect23902" />
  </defs>
  <text
     xml:space="preserve"
     id="text23900"
     style="font-size:16px;line-height:1.25;font-family:sans-serif;white-space:pre;shape-inside:url(#rect23902)"><tspan
       x="-12.714844"
       y="39.664062"
       id="tspan999"><tspan
         dx="0 6.2421875 5.390625 5.390625 5.390625 5.390625 5.390625"
         id="tspan997">[:|||:]</tspan></tspan></text>
  <g
     id="g937"
     transform="matrix(1.2027071,0,0,1.2027071,-1.6216567,-1.6216566)">
    <g
       id="g33587">
      <path
         d="m 2.7213276,9.1268147 q 0,-0.1794194 0.121749,-0.3043721 0.124953,-0.124953 0.3043725,-0.124953 0.1794194,0 0.3011684,0.124953 0.1249526,0.1249527 0.1249526,0.3043721 0,0.1794197 -0.1217489,0.3043727 -0.121749,0.1217489 -0.3043721,0.1217489 -0.1826236,0 -0.3043725,-0.1217489 -0.121749,-0.124953 -0.121749,-0.3043727 z m 0,-2.0889553 q 0,-0.1794195 0.121749,-0.3011684 0.124953,-0.1249526 0.3043725,-0.1249526 0.1826231,0 0.3043721,0.1217489 0.1217489,0.1217489 0.1217489,0.3043721 0,0.1826236 -0.1217489,0.3043725 -0.121749,0.121749 -0.3043721,0.121749 -0.1794195,0 -0.3043725,-0.121749 Q 2.7213276,7.217279 2.7213276,7.0378594 Z"
         style="font-size:16px;line-height:1.25;font-family:'DejaVu Serif';-inkscape-font-specification:'DejaVu Serif';white-space:pre;stroke-width:0.410102"
         id="path33408" />
      <path
         d="m 12.496262,9.0593073 q 0,-0.1794194 0.121748,-0.3043721 0.124954,-0.124953 0.304373,-0.124953 0.179419,0 0.301168,0.124953 0.124953,0.1249527 0.124953,0.3043721 0,0.1794197 -0.121749,0.3043727 -0.121749,0.1217489 -0.304372,0.1217489 -0.182624,0 -0.304373,-0.1217489 -0.121748,-0.124953 -0.121748,-0.3043727 z m 0,-2.0889553 q 0,-0.1794195 0.121748,-0.3011684 0.124954,-0.1249526 0.304373,-0.1249526 0.182623,0 0.304372,0.1217489 0.121749,0.1217489 0.121749,0.3043721 0,0.1826236 -0.121749,0.3043725 -0.121749,0.121749 -0.304372,0.121749 -0.179419,0 -0.304373,-0.121749 Q 12.496262,7.1497716 12.496262,6.970352 Z"
         style="font-size:16px;line-height:1.25;font-family:'DejaVu Serif';-inkscape-font-specification:'DejaVu Serif';white-space:pre;stroke-width:0.410102"
         id="path33416" />
    </g>
    <g
       id="g33591">
      <path
         d="M 1.4771978,5.074822 H 2.9670204 V 5.4144373 H 2.0891465 v 5.1711257 h 0.8778739 v 0.339615 H 1.4771978 Z"
         style="font-size:16px;line-height:1.25;font-family:'DejaVu Serif';-inkscape-font-specification:'DejaVu Serif';white-space:pre;stroke-width:0.410102"
         id="path33406" />
      <path
         d="m 14.522802,5.074822 v 5.850356 h -1.489823 v -0.339615 h 0.877874 V 5.4144373 H 13.032979 V 5.074822 Z"
         style="font-size:16px;line-height:1.25;font-family:'DejaVu Serif';-inkscape-font-specification:'DejaVu Serif';white-space:pre;stroke-width:0.410102"
         id="path33418" />
    </g>
    <g
       id="g33583">
      <path
         d="m 4.6674316,2.672095 v 10.65581 H 4.1483967 V 2.672095 Z"
         style="font-size:16px;line-height:1.25;font-family:'DejaVu Serif';-inkscape-font-specification:'DejaVu Serif';white-space:pre;stroke-width:0.522612"
         id="path33410" />
      <path
         d="M 8.2966943,2.6720949 V 13.327905 H 7.7776594 V 2.6720949 Z"
         style="font-size:16px;line-height:1.25;font-family:'DejaVu Serif';-inkscape-font-specification:'DejaVu Serif';white-space:pre;stroke-width:0.522612"
         id="path33412" />
      <path
         d="M 11.925957,2.6720947 V 13.327905 H 11.406923 V 2.6720947 Z"
         style="font-size:16px;line-height:1.25;font-family:'DejaVu Serif';-inkscape-font-specification:'DejaVu Serif';white-space:pre;stroke-width:0.522612"
         id="path33414" />
      <path
         d="M 10.111326,2.6720948 V 13.327905 H 9.5922909 V 2.6720948 Z"
         style="font-size:16px;line-height:1.25;font-family:'DejaVu Serif';-inkscape-font-specification:'DejaVu Serif';white-space:pre;stroke-width:0.522612"
         id="path33572" />
      <path
         d="M 6.4820629,2.6720948 V 13.327905 H 5.963028 V 2.6720948 Z"
         style="font-size:16px;line-height:1.25;font-family:'DejaVu Serif';-inkscape-font-specification:'DejaVu Serif';white-space:pre;stroke-width:0.522612"
         id="path33574" />
    </g>
  </g>
</svg>
