<?xml version="1.0" encoding="UTF-8" standalone="no"?>
<!-- Created with Inkscape (http://www.inkscape.org/) -->

<svg
   version="1.1"
   id="svg870"
   xml:space="preserve"
   width="700mm"
   height="700mm"
   viewBox="0 0 2645.6693 2645.6729"
   xmlns="http://www.w3.org/2000/svg"
   xmlns:svg="http://www.w3.org/2000/svg"><defs
     id="defs874" /><g
     id="g876"
     transform="matrix(1.3333333,0,0,-1.3333333,0,2666.6667)"><g
       id="g1741"
       transform="translate(13.404413,-43.937089)"><path
         d="m 126.28835,117.51649 h 882.09595 c 4.1571,0 8.2681,0.34066 12.3195,1.00067 h 537.5573 c 63.8014,0 115.5229,88.97866 115.5229,198.73612 v 45.40777 c 0,131.53734 61.9823,238.15981 138.4406,238.15981 v 0 c 78.3778,0 141.9169,109.31746 141.9169,244.14378 v 0.011 c 0,134.83733 -63.5391,244.14396 -141.9169,244.14396 h -23.2494 c -76.4594,0 -138.4412,106.6224 -138.4412,238.1596 v 0 c 0,109.7575 -51.7214,198.736 -115.5236,198.736 h -152.9863 c 38.3145,39.2479 64.2759,115.0375 64.2759,202.1021 v 0.01 c 0,127.3573 -55.5434,230.6139 -124.0623,230.6139 H 451.32699 c -61.5514,0 -111.45633,-92.7735 -111.45633,-207.1948 0,-137.1364 -59.8028,-248.3019 -133.57473,-248.3019 h -22.42852 c -75.61954,0 -136.926789,-113.9484 -136.926789,-254.5277 v 0 c 0,-140.5684 61.307249,-254.52784 136.926789,-254.52784 73.77193,0 133.56812,-111.16543 133.56812,-248.29076 v -47.34376 c 0,-64.41568 15.81675,-121.96739 40.62736,-159.9612 H 126.28835 c -69.746814,0 -126.28991002,-94.26953 -126.28991002,-210.53895 0,-116.28042 56.54309602,-210.53873 126.28991002,-210.53873 M 1622.6077,688.42384 c 8.619,0 15.6042,-11.41793 15.6042,-25.50887 v -16.19192 c 0,-14.09093 -6.9852,-25.50887 -15.6042,-25.50887 l -107.032,0.066 h -64.0226 v 4.09198 h 0.4045 c 0,0 6.2454,4.69698 6.2454,29.56785 0,19.74492 -6.2454,29.32587 -6.2454,29.32587 v 0 0 h 0.2176 c -0.129,0.0109 -0.1985,0.0109 -0.1985,0.0109 l -0.4236,0.011 v 4.06998 h 5.6482 c 0.2264,0.0439 0.456,0.066 0.689,0.066 h 23.6592 c -8.6216,0 -15.6102,9.05295 -15.6102,20.22889 v 12.84794 c 0,10.53795 6.2052,19.1839 14.1348,20.15191 h -29.8658 v 3.26697 h 0.3577 c 0,0 5.5176,3.75099 5.5176,23.62789 0,15.77391 -5.5176,23.41888 -5.5176,23.41888 v 0 0 h 0.1972 c -0.1182,0.0109 -0.1807,0.0109 -0.1807,0.0109 l -0.3742,0.011 v 3.25599 h 4.9891 c 0.2,0.033 0.4039,0.0439 0.6098,0.0439 h 145.5351 c 7.6142,0 13.7872,-9.11895 13.7872,-20.3719 v -12.93594 c 0,-10.44995 -5.3204,-19.0629 -12.1749,-20.2399 h 43.3773 c 0.2344,0 0.4653,-0.0109 0.6924,-0.0439 h 5.6477 v -3.23399 l -0.4236,-0.011 c 0,0 -0.072,0 -0.2071,-0.0109 h 0.2249 c 0,0 -6.2474,-7.58996 -6.2474,-23.26487 0,-19.7339 6.2474,-23.4629 6.2474,-23.4629 h 0.4058 v -3.24496 h -62.4957 l -108.6268,-0.0439 h 141.0582 M 477.78064,1811.3648 c 2.07194,0 4.16368,-0.099 6.26202,-0.319 54.30619,-5.6979 95.56041,-83.8525 92.15555,-174.5581 -3.2795,-87.2076 -46.63205,-154.2743 -98.23282,-154.2743 -2.07195,0 -4.1637,0.1101 -6.26203,0.3301 -54.29959,5.6869 -95.5604,83.8415 -92.15555,174.558 3.27949,87.2077 46.63865,154.2633 98.23283,154.2633"
         style="fill:#dce9f8;fill-opacity:1;fill-rule:nonzero;stroke:none;stroke-width:0.0851961"
         id="path882" /><g
         id="g1672"
         transform="rotate(-23.532629,1544.6577,916.46135)"><path
           d="m 1954.3544,727.4618 c 4.1701,0.0103 7.5454,2.29431 7.5382,5.09502 -0.01,2.80071 -3.3929,5.06402 -7.564,5.06402 -4.1701,-0.0103 -7.5443,-2.29431 -7.5371,-5.09502 0.01,-2.81105 3.3929,-5.07436 7.5629,-5.06402 z m -0.047,19.07791 c -2.9557,-0.0103 -5.3493,-1.4882 -5.3441,-3.30711 0,-1.81891 2.4039,-3.28644 5.3606,-3.27611 2.9568,0.0103 5.3493,1.4882 5.3452,3.30711 0,1.81892 -2.4049,3.28645 -5.3617,3.27611 z m -0.01,4.02022 c 5.5084,0.0103 9.9895,-6.34553 10.0081,-14.18959 0.02,-7.8544 -4.4294,-14.23093 -9.9379,-14.24126 -5.5084,-0.0103 -9.9895,6.33519 -10.0091,14.18958 -0.02,7.8544 4.4305,14.2206 9.9389,14.24127"
           style="fill:#4a6cbd;fill-opacity:1;fill-rule:nonzero;stroke:none;stroke-width:0.103347"
           id="path884" /><path
           d="m 1976.941,719.17334 c 2.0938,-4.51627 3.1914,-9.42527 3.2038,-14.40661 L 1980.4,600.70631 c 0.015,-6.28352 -5.1188,-11.38887 -11.4674,-11.40954 l -59.5043,-0.14469 c -6.3486,-0.0103 -11.5077,5.06402 -11.5232,11.34754 l -0.2553,104.07075 c -0.012,4.971 1.0614,9.89034 3.1325,14.41695 l 76.1587,0.18602"
           style="fill:#663199;fill-opacity:1;fill-rule:nonzero;stroke:none;stroke-width:0.103347"
           id="path886" /><path
           d="m 1976.941,719.17334 c 2.0938,-4.51627 3.1914,-9.42527 3.2038,-14.40661 L 1980.4,600.70631 c 0.015,-6.28352 -5.1188,-11.38887 -11.4674,-11.40954 l -59.5043,-0.14469 c -6.3486,-0.0103 -11.5077,5.06402 -11.5232,11.34754 l -0.2553,104.07075 c -0.012,4.971 1.0614,9.89034 3.1325,14.41695 l 76.1587,0.18602"
           style="fill:#663199;fill-opacity:1;fill-rule:nonzero;stroke:none;stroke-width:0.103347"
           id="path888" /><path
           d="m 1897.6436,704.57037 0.2553,-104.07075 c 0.015,-6.28352 5.1808,-11.36821 11.5232,-11.34754 l 59.5043,0.14469 c 6.3569,0.0103 11.4829,5.12602 11.4685,11.40954 l -0.2563,104.06042 c -0.012,4.971 -1.1058,9.88 -3.1997,14.40661 l -76.1525,-0.19636 c -2.0711,-4.52661 -3.1552,-9.44594 -3.1428,-14.40661"
           style="fill:#f35f52;fill-opacity:1;fill-rule:nonzero;stroke:none;stroke-width:0.103347"
           id="path890" /><path
           d="m 1964.622,600.66497 -0.2553,104.06042 c -0.011,4.98134 -1.1089,9.89034 -3.2027,14.40662 l 15.777,0.0413 c 2.0938,-4.51627 3.1914,-9.42527 3.2038,-14.40661 L 1980.4,600.70628 c 0.015,-6.28352 -5.1188,-11.38887 -11.4674,-11.40954 l -15.777,-0.031 c 6.3486,0.0103 11.4829,5.1157 11.4664,11.39921"
           style="fill:#f47374;fill-opacity:1;fill-rule:nonzero;stroke:none;stroke-width:0.103347"
           id="path892" /><path
           d="m 1897.6436,704.57037 0.2553,-104.07075 c 0.015,-6.28352 5.1808,-11.36821 11.5232,-11.34754 l 24.329,0.0517 c -6.4096,-0.0103 -11.6296,5.07436 -11.6441,11.35788 l -0.2553,104.07075 c -0.012,4.96067 1.0841,9.88 3.1697,14.40661 l -24.235,-0.062 c -2.0711,-4.52661 -3.1552,-9.44594 -3.1428,-14.40661"
           style="fill:#b14a40;fill-opacity:1;fill-rule:nonzero;stroke:none;stroke-width:0.103347"
           id="path894" /><path
           d="m 1900.7823,718.98732 76.1659,0.18602 c -0.01,3.32779 -2.7397,6.01482 -6.1006,6.00448 l -63.9936,-0.15502 c -3.3609,-0.0103 -6.08,-2.7077 -6.0717,-6.03548"
           style="fill:#1b375a;fill-opacity:1;fill-rule:nonzero;stroke:none;stroke-width:0.103347"
           id="path896" /><path
           d="m 1897.8493,621.04506 82.4949,0.2067 0.032,-12.92875 -82.496,-0.2067 -0.031,12.92875"
           style="fill:#375491;fill-opacity:1;fill-rule:nonzero;stroke:none;stroke-width:0.103347"
           id="path898" /></g><path
         d="m 1499.8763,121.00918 24.1936,4.58894 -104.5461,554.54094 -24.2039,-4.58862 104.5564,-554.54126"
         style="fill:#1e4150;fill-opacity:1;fill-rule:nonzero;stroke:none;stroke-width:0.103347"
         id="path930" /><path
         d="m 697.39474,118.48772 h -29.1026 l 108.45267,561.65134 24.1936,-4.58862 -103.54367,-557.06272"
         style="fill:#1e4150;fill-opacity:1;fill-rule:nonzero;stroke:none;stroke-width:0.103347"
         id="path932" /><path
         d="m 1230.2225,118.48772 h -29.1026 l 108.4527,561.65134 24.2039,-4.58862 -103.554,-557.06272"
         style="fill:#1e4150;fill-opacity:1;fill-rule:nonzero;stroke:none;stroke-width:0.103347"
         id="path934" /><path
         d="m 962.56331,118.48772 23.6355,-0.27894 -103.9881,559.40861 -24.1936,-4.58862 104.5462,-554.54105"
         style="fill:#1e4150;fill-opacity:1;fill-rule:nonzero;stroke:none;stroke-width:0.103347"
         id="path936" /><path
         d="M 1068.1326,1436.5588 C 972.31931,1426.2964 848.32321,1415.4656 723.85166,1204.234 587.80525,973.35608 659.4146,628.49641 766.79251,532.66244 874.17031,436.82847 1224.8795,318.50612 1519.688,495.65376 c 0,0 178.0054,107.34686 86.6464,285.51764 -140.5833,274.1701 -120.72,331.3522 -183.5758,438.8024 -62.8559,107.4399 -151.2488,238.3602 -354.626,216.585"
         style="fill:#f7d99b;fill-opacity:1;fill-rule:nonzero;stroke:none;stroke-width:0.103347"
         id="path938" /><path
         d="m 723.85166,1204.234 c 84.96185,144.1695 169.68595,194.975 245.38785,215.9752 -29.2783,-30.3014 -58.9596,-69.284 -88.6823,-119.7072 -136.04642,-230.8779 -64.4267,-575.73757 42.9511,-671.57154 95.22429,-84.9825 381.80639,-187.62706 651.06749,-86.233 -27.6868,-30.64248 -54.8878,-47.0437 -54.8878,-47.0437 C 1224.8795,318.50612 874.17031,436.82847 766.79251,532.66244 659.4146,628.49641 587.80525,973.35608 723.85166,1204.234"
         style="fill:#f3c267;fill-opacity:1;fill-rule:nonzero;stroke:none;stroke-width:0.103347"
         id="path940" /><path
         d="m 921.06931,1987.8237 c 99.16179,0.5891 179.84499,-48.3149 180.20679,-109.2278 0.186,-30.4564 -19.7497,-58.1535 -52.1284,-78.3062 l 40.7808,-89.5815 -85.1065,69.3254 c -24.65869,-8.0198 -52.69679,-12.6291 -82.44019,-12.8047 -99.172,-0.5891 -179.85529,48.3148 -180.21701,109.2381 -0.36171,60.9129 79.74281,110.7676 178.90451,111.3567"
         style="fill:#f7d99b;fill-opacity:1;fill-rule:nonzero;stroke:none;stroke-width:0.103347"
         id="path944" /><path
         d="m 989.76431,1867.0314 c -8.8052,-33.4226 -43.0338,-53.3789 -76.446,-44.5634 -33.4225,8.8155 -53.3686,43.0442 -44.5634,76.4667 8.8156,33.4225 43.0442,53.3789 76.4564,44.5633 33.4122,-8.8155 53.3685,-43.0545 44.553,-76.4666"
         style="fill:#f3c267;fill-opacity:1;fill-rule:nonzero;stroke:none;stroke-width:0.103347"
         id="path946" /><path
         d="m 894.38511,1881.9237 c -4.7023,-17.8687 5.9631,-36.1716 23.8215,-40.8842 17.8688,-4.7126 36.1716,5.9528 40.8739,23.8216 l -64.6954,17.0626"
         style="fill:#ebebe9;fill-opacity:1;fill-rule:nonzero;stroke:none;stroke-width:0.103347"
         id="path948" /><path
         d="m 1944.6646,1122.941 -273.7898,2.0566 c -6.2525,0.052 -11.2752,5.157 -11.2338,11.4095 l 1.3745,183.0385 c 0.052,6.2525 5.157,11.2855 11.4095,11.2338 l 273.7836,-2.0566 c 6.2525,-0.041 11.2835,-5.1467 11.2359,-11.3992 l -1.3735,-183.0488 c -0.048,-6.2525 -5.1539,-11.2752 -11.4064,-11.2338"
         style="fill:#f35f52;fill-opacity:1;fill-rule:nonzero;stroke:none;stroke-width:0.103347"
         id="path950" /><path
         d="m 1669.4073,1228.8617 -88.393,-90.0776 109.0521,20.3491 z"
         style="fill:#f35f52;fill-opacity:1;fill-rule:nonzero;stroke:none;stroke-width:0.103347"
         id="path952" /><path
         d="m 1749.1604,1241.563 26.6119,0.4754 c 0,0 33.5156,25.0308 34.5491,33.8773 1.0231,8.8465 -4.475,27.5731 0.7234,29.9294 5.1984,2.346 16.2152,4.2062 23.1705,-7.5134 5.0536,-8.5055 0.8474,-39.5407 3.9685,-41.6179 1.9636,-1.3022 17.259,-1.4572 28.4308,-1.3952 7.3542,0.041 14.11,-3.9996 17.5546,-10.4898 l 0.011,-0.021 c 2.3284,-4.3922 1.2691,-9.8076 -2.5434,-12.9907 l -5.9332,-4.9607 4.6693,-6.2112 c 3.4766,-4.6196 2.5723,-11.1718 -2.0256,-14.6856 l -4.6837,-3.5655 3.2068,-3.6585 c 4.1319,-4.7023 3.2606,-11.9573 -1.8675,-15.5434 l -4.1618,-2.9248 0.6201,-1.1471 c 2.6013,-4.7953 1.11,-10.7791 -3.4311,-13.7865 l -4.1856,-2.7697 -70.8549,-1.2506 c -6.6349,-0.124 -13.2284,1.1162 -19.3673,3.6379 l -24.9997,3.6791 c -2.687,0.3928 -4.6713,2.6974 -4.6816,5.4154 l -0.1654,62.0188 c 0,2.997 2.3977,5.436 5.3844,5.498"
         style="fill:#ffffff;fill-opacity:1;fill-rule:nonzero;stroke:none;stroke-width:0.103347"
         id="path954" /><path
         d="m 1375.7459,1085.6429 24.6276,-73.883 -75.0611,29.5264 z"
         style="fill:#f68480;fill-opacity:1;fill-rule:nonzero;stroke:none;stroke-width:0.103347"
         id="path956" /><path
         d="m 1298.3697,1305.4937 c 5.002,-0.2067 18.7162,-4.7747 38.7656,-42.5378 25.5991,-48.2218 63.0212,-193.9002 63.0212,-193.9002 l -111.6978,-41.4526 -14.3446,30.4048 -23.6355,234.0816 c 0,0 46.5063,13.4662 47.8911,13.4042"
         style="fill:#14293f;fill-opacity:1;fill-rule:nonzero;stroke:none;stroke-width:0.103347"
         id="path958" /><path
         d="m 1150.7174,1326.4939 c 31.9447,-0.041 110.9744,-9.3323 147.6523,-21.0105 0,0 26.9427,-230.8159 -24.2556,-406.20668 -11.4715,-39.26165 9.477,-162.7617 9.477,-162.7617 l -330.98019,4.35093 c 0,0 39.21,298.56005 24.4417,346.78195 -14.7684,48.2218 -15.1197,216.2853 -15.1197,216.2853 0,0 2.2633,0.3513 74.35839,12.7737 33.6292,5.7874 80.3215,9.8283 114.4261,9.787"
         style="fill:#1b3659;fill-opacity:1;fill-rule:nonzero;stroke:none;stroke-width:0.103347"
         id="path960" /><path
         d="m 1112.1482,308.10938 c 0,0 7.3273,-84.22807 20.7831,-107.55356 13.4662,-23.32549 -0.7027,-62.96942 -1.4158,-68.41572 -0.7028,-5.43627 -28.3378,-13.21802 -72.2708,-8.54723 -43.9329,4.66117 -43.2198,14.76864 -39.675,31.09741 3.5344,16.32888 26.9219,37.31872 28.3378,52.86216 1.4159,15.55377 -13.4662,71.52668 -13.4662,71.52668 l 77.7069,29.03026"
         style="fill:#f68d82;fill-opacity:1;fill-rule:nonzero;stroke:none;stroke-width:0.103347"
         id="path962" /><path
         d="m 1246.2517,806.03677 c 0,0 228.4699,12.63937 279.4925,-18.14779 51.0122,-30.7975 -9.2289,-94.03573 -9.2289,-94.03573 0,0 -186.0045,-80.59024 -497.4004,-98.50033 -73.73829,-4.24757 -80.09409,191.61627 -66.30759,207.82113 13.7865,16.20486 293.44439,2.86272 293.44439,2.86272"
         style="fill:#38816a;fill-opacity:1;fill-rule:nonzero;stroke:none;stroke-width:0.103347"
         id="path964" /><path
         d="m 1053.7673,117.0514 c -45.2351,4.80565 -39.644,26.95277 -35.9959,43.76738 2.284,10.52076 15.2644,22.93277 22.9948,34.67302 4.0409,-3.2141 10.6241,-8.87753 30.2704,-14.66498 20.4008,-6.00448 48.3666,5.88046 66.1837,13.3318 6.3455,-23.56319 6.6349,-53.60625 6.0458,-58.16407 -0.7338,-5.60133 -44.2637,-23.74881 -89.4988,-18.94315"
         style="fill:#375491;fill-opacity:1;fill-rule:nonzero;stroke:none;stroke-width:0.103347"
         id="path966" /><path
         d="m 1078.736,643.14072 c 9.1256,-68.83965 54.3194,-411.53936 54.3194,-411.53936 l -104.8666,-12.94942 c 0,0 -128.95669,447.2872 -122.34249,515.70313 6.6142,68.41592 54.8877,74.17237 54.8877,74.17237 0,0 93.83939,16.83528 118.00199,-165.38672"
         style="fill:#43927a;fill-opacity:1;fill-rule:nonzero;stroke:none;stroke-width:0.103347"
         id="path968" /><path
         d="m 1179.1999,1617.7059 c 0,0 -34.8487,36.7297 -62.8765,-7.9577 0,0 -21.5789,12.1226 -36.7296,-9.4666 0,0 -39.0136,11.7402 -48.4802,-46.5786 0,0 -20.0701,3.7825 -22.7158,-20.0804 -2.656,-23.8526 9.4666,-39.7577 9.4666,-39.7577 0,0 -11.2752,-8.4642 -6.1595,-30.3945 4.3613,-18.6542 19.7911,-21.4962 19.7911,-21.4962 0,0 4.1648,-31.428 17.7964,-40.9049 13.6315,-9.4666 32.1926,-4.9193 32.1926,-4.9193 0,0 4.9194,-17.042 20.8349,-15.5228 15.9051,1.5089 35.5928,16.6596 53.3995,9.8387 17.7964,-6.8106 64.003,0.3823 64.003,0.3823 0,0 51.8804,23.0982 36.3576,76.1257 0,0 27.263,24.6173 3.4001,54.154 0,0 17.4244,46.2066 -17.0419,73.4696 -34.456,27.2733 -63.2383,23.1084 -63.2383,23.1084"
         style="fill:#1b3659;fill-opacity:1;fill-rule:nonzero;stroke:none;stroke-width:0.103347"
         id="path970" /><path
         d="m 1173.3091,1368.2979 6.3042,-46.7957 c 0,0 14.1276,-67.4135 -4.0409,-80.4042 -18.1787,-13.0011 -77.3037,82.3265 -77.3037,82.3265 l 6.2421,118.5703 68.7983,-73.6969"
         style="fill:#f68d82;fill-opacity:1;fill-rule:nonzero;stroke:none;stroke-width:0.103347"
         id="path972" /><path
         d="m 1102.4956,1403.5703 c 15.0163,-40.4398 50.7745,-65.3052 76.1566,-74.9475 l -5.3431,39.6751 -68.7983,73.6969 -2.0152,-38.4245"
         style="fill:#f35f52;fill-opacity:1;fill-rule:nonzero;stroke:none;stroke-width:0.103347"
         id="path974" /><path
         d="m 1146.5215,1566.5594 c 36.8847,12.7013 76.2083,-11.8023 81.8304,-49.8238 2.4494,-16.5356 4.661,-37.3187 5.0744,-60.0344 0.9921,-54.6604 -27.294,-107.843 -52.1181,-107.843 -24.8137,0 -93.4053,35.3758 -95.8856,112.9587 -1.5296,47.9014 22.385,91.421 61.0989,104.7425"
         style="fill:#f68d82;fill-opacity:1;fill-rule:nonzero;stroke:none;stroke-width:0.103347"
         id="path976" /><path
         d="m 1103.7151,1455.6884 c 0,-12.0607 -7.9991,-21.827 -17.8585,-21.827 -9.849,0 -17.848,9.7663 -17.848,21.827 0,12.0503 7.999,21.8269 17.848,21.8269 9.8594,0 17.8585,-9.7766 17.8585,-21.8269"
         style="fill:#f68d82;fill-opacity:1;fill-rule:nonzero;stroke:none;stroke-width:0.103347"
         id="path978" /><path
         d="m 1254.0337,1593.75 c 25.6302,-20.3077 34.6214,-51.1569 20.0701,-68.912 -14.5617,-17.755 -47.1367,-15.6881 -72.7669,4.6197 -25.6404,20.3077 -34.6213,51.1672 -20.07,68.9223 14.5513,17.7551 47.1367,15.6778 72.7668,-4.63"
         style="fill:#1b3659;fill-opacity:1;fill-rule:nonzero;stroke:none;stroke-width:0.103347"
         id="path980" /><path
         d="m 958.32601,1278.2823 c 30.9422,11.5646 46.08259,-266.3157 50.25779,-380.70048 54.8051,-5.25004 150.3187,-0.0413 174.0989,1.74657 11.1926,0.83712 36.9777,10.25206 48.1082,11.69892 11.3992,1.4882 21.734,2.26331 27.3354,1.29184 2.0566,-0.36172 59.1767,-23.63553 64.065,-28.74089 6.0561,-6.33519 22.447,-22.30235 19.6773,-29.20595 -2.7594,-6.91394 -31.5106,19.24327 -31.5106,19.24327 l -14.0449,7.8544 c 17.4864,-17.03164 50.8469,-39.44768 46.0413,-47.61211 -4.692,-7.96808 -34.7764,14.789 -56.221,30.29109 18.3958,-16.55624 41.2459,-46.17558 35.9752,-50.7952 -4.723,-4.15457 -30.7148,30.14641 -58.4946,40.02641 -10.2934,3.6585 -20.5558,-6.47987 -28.6582,-7.69937 -5.9528,-0.89912 -15.13,-2.82138 -20.9692,-1.16783 l -30.0844,8.49515 c -10.2417,-0.91979 -10.5,-6.95527 -20.8451,-9.15657 -12.009,-2.54234 -31.7173,-5.22937 -47.0127,-8.94988 -88.0829,-21.4549 -117.46459,-31.40725 -144.42789,-31.39691 -81.6857,0.0517 -86.4294,447.43184 -13.2905,474.77754"
         style="fill:#f68d82;fill-opacity:1;fill-rule:nonzero;stroke:none;stroke-width:0.103347"
         id="path982" /><path
         d="m 899.59381,1017.3924 c -5.7875,117.1545 -4.94,261.5617 60.9542,286.1997 26.0022,9.725 71.83669,-48.7283 63.59999,-288.5767 -35.17949,-2.8937 -86.83249,-5.2294 -124.55419,2.377"
         style="fill:#1b3659;fill-opacity:1;fill-rule:nonzero;stroke:none;stroke-width:0.103347"
         id="path984" /><path
         d="m 1268.2853,1067.7329 h -6.7175 l -100.991,-247.32052 6.9552,1.05414 100.7533,246.26638"
         style="fill:#f68480;fill-opacity:1;fill-rule:nonzero;stroke:none;stroke-width:0.103347"
         id="path986" /><path
         d="m 1418.8004,236.06596 c 0,0 -9.1463,-29.23695 7.2343,-48.57324 16.3909,-19.33628 84.4761,-38.31085 93.4053,-48.78004 8.9395,-10.46918 8.2678,-19.38764 8.2678,-19.38764 l -191.0892,5.2396 2.0773,57.51268 8.8052,41.3286 71.2993,12.66004"
         style="fill:#f68d82;fill-opacity:1;fill-rule:nonzero;stroke:none;stroke-width:0.103347"
         id="path988" /><path
         d="m 1437.93,177.85042 c 0,0 -49.1004,-19.79101 -72.8186,-8.08176 -23.7182,11.71958 -23.0051,14.97502 -29.8673,10.60343 -6.8623,-4.37159 -9.322,-58.28778 -9.322,-58.28778 l 214.8694,-6.29375 c 14.9544,0.34073 22.5194,11.31653 10.3658,20.7107 -8.3298,6.44877 -17.9515,10.75835 -23.4289,13.87944 -16.8042,9.6113 -89.7984,27.46972 -89.7984,27.46972"
         style="fill:#375491;fill-opacity:1;fill-rule:nonzero;stroke:none;stroke-width:0.103347"
         id="path990" /><path
         d="m 1411.5661,752.0688 c 14.7683,30.97319 48.3562,71.29931 107.4605,47.01269 56.3656,-23.17047 71.4957,-80.10451 53.7096,-138.40273 -17.7861,-58.30856 -134.8683,-401.03927 -138.9505,-448.15532 l -93.4776,-0.62008 c 0,0 16.9903,271.37973 21.1552,336.97427 4.0098,63.11421 24.5346,149.57458 50.1028,203.19117"
         style="fill:#43927a;fill-opacity:1;fill-rule:nonzero;stroke:none;stroke-width:0.103347"
         id="path992" /><path
         d="M 1563.3213,1067.7329 H 1250.83 c -8.2678,0 -15.7192,-4.9917 -18.8506,-12.6498 L 1135.7631,820.41238 H 963.48311 c -4.816,0 -8.7225,-3.90653 -8.7225,-8.72251 0,-4.80566 3.9065,-8.71218 8.7225,-8.71218 h 490.32099 c 13.4765,0 25.7025,7.9164 31.2212,20.21473 l 96.8881,215.82018 c 6.0562,13.4765 -3.8135,28.7203 -18.5921,28.7203"
         style="fill:#f35f52;fill-opacity:1;fill-rule:nonzero;stroke:none;stroke-width:0.103347"
         id="path994" /><path
         d="m 1395.0822,931.07669 c -2.1187,-10.54143 -11.3062,-17.58971 -20.5455,-15.7398 -9.2289,1.83958 -14.9957,11.88494 -12.8874,22.42637 2.1083,10.54143 11.3062,17.58971 20.5351,15.7398 9.2289,-1.83958 15.006,-11.88494 12.8978,-22.42637"
         style="fill:#ffffff;fill-opacity:1;fill-rule:nonzero;stroke:none;stroke-width:0.103347"
         id="path996" /><path
         d="m 516.67129,1399.6844 c 80.8176,0 148.71679,63.0109 153.85315,144.9447 5.33272,85.2202 -59.28002,158.6484 -144.33487,164.0018 -3.28644,0.2067 -6.56255,0.2997 -9.80766,0.2997 -80.80727,0 -148.71679,-63.0005 -153.85315,-144.9343 -5.33272,-85.2305 59.29036,-158.6588 144.33486,-164.0018 3.28645,-0.2067 6.56256,-0.3101 9.80767,-0.3101"
         style="fill:#c4daf2;fill-opacity:1;fill-rule:nonzero;stroke:none;stroke-width:0.103347"
         id="path998" /><path
         d="m 625.58903,1557.3511 v -4.3819 h 56.88236 v 4.3819 h -56.88236"
         style="fill:#1e4150;fill-opacity:1;fill-rule:nonzero;stroke:none;stroke-width:0.103347"
         id="path1000" /><path
         d="m 350.23043,1557.3511 v -4.3819 h 56.88236 v 4.3819 h -56.88236"
         style="fill:#1e4150;fill-opacity:1;fill-rule:nonzero;stroke:none;stroke-width:0.103347"
         id="path1002" /><path
         d="m 514.58367,1662.4243 h 4.37159 v 57.0064 h -4.37159 v -57.0064"
         style="fill:#1e4150;fill-opacity:1;fill-rule:nonzero;stroke:none;stroke-width:0.103347"
         id="path1004" /><path
         d="m 514.58367,1387.6031 h 4.37159 v 57.0064 h -4.37159 v -57.0064"
         style="fill:#1e4150;fill-opacity:1;fill-rule:nonzero;stroke:none;stroke-width:0.103347"
         id="path1006" /><path
         d="m 511.81396,1554.3127 c 0,-2.6147 2.10829,-4.723 4.71264,-4.723 2.60435,0 4.71264,2.1083 4.71264,4.723 0,2.6044 -2.10829,4.7126 -4.71264,4.7126 -2.60435,0 -4.71264,-2.1082 -4.71264,-4.7126"
         style="fill:#1e4150;fill-opacity:1;fill-rule:nonzero;stroke:none;stroke-width:0.103347"
         id="path1008" /><path
         d="m 516.5266,1552.2044 c 0.53741,0 1.07481,0.1964 1.4882,0.6098 l 84.61045,84.7861 c 0.81645,0.8268 0.81645,2.16 0,2.9867 -0.82678,0.8165 -2.15996,0.8165 -2.9764,0 l -84.61045,-84.7861 c -0.81645,-0.8268 -0.81645,-2.16 0,-2.9867 0.41339,-0.4134 0.95079,-0.6098 1.4882,-0.6098"
         style="fill:#1e4150;fill-opacity:1;fill-rule:nonzero;stroke:none;stroke-width:0.103347"
         id="path1010" /><path
         d="m 489.32558,1468.6274 c 0.35139,0.1757 0.63042,0.4858 0.76477,0.8888 l 27.34571,82.7812 c 0.2687,0.7958 -0.16536,1.6639 -0.97147,1.9326 -0.80611,0.2687 -1.66389,-0.1653 -1.93259,-0.9714 l -27.3457,-82.7812 c -0.26871,-0.8062 0.16535,-1.6743 0.97146,-1.9326 0.40305,-0.1344 0.81644,-0.093 1.16782,0.083"
         style="fill:#1e4150;fill-opacity:1;fill-rule:nonzero;stroke:none;stroke-width:0.103347"
         id="path1012" /><path
         d="m 220.70523,1223.4669 -12.319,20.0907 19.58432,7.9475 12.319,-20.0908 z m 49.90642,-17.9204 -13.7762,22.3747 11.05817,4.4853 c 2.41832,0.9818 3.58615,3.7411 2.60435,6.1595 -0.9818,2.4183 -3.74117,3.5861 -6.1595,2.6043 l -12.75306,-5.1777 -12.30867,20.0907 11.8126,4.7954 c 2.41833,0.9818 3.58615,3.7308 2.60436,6.1595 -0.9818,2.4183 -3.74118,3.5861 -6.15951,2.6043 l -13.50749,-5.4774 -14.30327,23.0051 c -1.20916,1.9533 -3.65849,2.7491 -5.78745,1.8809 l -2.06695,-0.8371 c -2.7077,-1.0955 -3.78251,-4.3612 -2.25297,-6.8519 l 13.3008,-21.7029 -19.58431,-7.9475 -14.30327,23.0052 c -1.20917,1.9532 -3.6585,2.749 -5.78745,1.8912 l -2.25297,-0.9198 c -2.7077,-1.0955 -3.78252,-4.3612 -2.25298,-6.8519 l 13.29047,-21.7029 -11.05816,-4.4853 c -2.41833,-0.9818 -3.58616,-3.7412 -2.60436,-6.1595 0.9818,-2.4183 3.74118,-3.5862 6.1595,-2.6044 l 12.75306,5.1674 12.12264,-20.1631 -11.81259,-4.7849 c -2.41833,-0.9818 -3.58616,-3.7412 -2.60436,-6.1595 0.9818,-2.4287 3.74118,-3.5862 6.1595,-2.6044 l 13.5075,5.4774 14.61331,-23.7285 c 1.20916,-1.9636 3.65849,-2.7697 5.79778,-1.9016 l 2.41833,0.9818 c 2.7077,1.0955 3.78251,4.3716 2.24264,6.8622 l -13.76587,22.3644 19.58432,7.9371 14.60298,-23.7182 c 1.20916,-1.9636 3.66883,-2.7697 5.80812,-1.9016 l 2.40799,0.9714 c 2.7077,1.1059 3.78251,4.3716 2.25297,6.8623"
         style="fill:#1b3659;fill-opacity:1;fill-rule:nonzero;stroke:none;stroke-width:0.103347"
         id="path1014" /><path
         d="m 1478.8142,1814.0245 -14.0759,31.7793 18.1994,29.6194 c 2.067,3.3691 -0.6304,7.658 -4.5679,7.2549 l -34.5697,-3.5758 -22.5504,26.4673 c -2.563,3.0074 -7.472,1.7672 -8.3091,-2.098 l -7.286,-33.9909 -32.1307,-13.2698 c -3.6585,-1.5089 -3.9995,-6.5522 -0.5684,-8.5468 l 30.0637,-17.4347 2.6871,-34.6524 c 0.31,-3.9478 5.0123,-5.8288 7.9577,-3.1831 l 25.8782,23.2118 33.7842,-8.1644 c 3.8549,-0.9198 7.0896,2.9661 5.4878,6.5832"
         style="fill:#f47374;fill-opacity:1;fill-rule:nonzero;stroke:none;stroke-width:0.103347"
         id="path1016" /><path
         d="m 458.75545,1814.0555 -10.5621,23.8422 13.65218,22.2197 c 1.56055,2.5217 -0.46506,5.7358 -3.42079,5.4361 l -25.94018,-2.6767 -16.90762,19.8427 c -1.92226,2.2633 -5.61176,1.3332 -6.23185,-1.5709 l -5.46707,-25.4958 -24.10059,-9.9523 c -2.74904,-1.1265 -2.99708,-4.9194 -0.43406,-6.4076 l 22.56072,-13.0734 2.01527,-26.0022 c 0.22736,-2.9661 3.75151,-4.3716 5.96314,-2.3873 l 19.40863,17.4037 25.35109,-6.1078 c 2.88339,-0.7028 5.32239,2.2116 4.11323,4.9296"
         style="fill:#f3c267;fill-opacity:1;fill-rule:nonzero;stroke:none;stroke-width:0.103347"
         id="path1018" /><path
         d="m 563.6013,1132.9243 1.67423,19.7497 17.21766,9.8077 c 1.95327,1.1265 1.78791,3.9995 -0.2997,4.878 l -18.26147,7.6993 -4.00988,19.4087 c -0.46506,2.2013 -3.25544,2.935 -4.73331,1.2195 l -12.95975,-14.9854 -19.698,2.1703 c -2.24264,0.2584 -3.79285,-2.1806 -2.62502,-4.1132 l 10.25205,-16.9593 -8.16444,-18.0651 c -0.93012,-2.0566 0.90946,-4.2786 3.10042,-3.7722 l 19.30528,4.5163 14.65465,-13.3422 c 1.66389,-1.5192 4.35092,-0.465 4.54728,1.7879"
         style="fill:#f47374;fill-opacity:1;fill-rule:nonzero;stroke:none;stroke-width:0.103347"
         id="path1020" /><path
         d="m 1543.9436,1454.8926 -7.7407,17.476 10.004,16.2876 c 1.1472,1.8602 -0.341,4.2165 -2.501,3.9995 l -19.0262,-1.9636 -12.4017,14.5513 c -1.4055,1.6536 -4.1132,0.9715 -4.5679,-1.1575 l -4.0099,-18.6955 -17.6724,-7.2963 c -2.0153,-0.8268 -2.2013,-3.6069 -0.31,-4.7023 l 16.5355,-9.5907 1.4779,-19.0676 c 0.1653,-2.1703 2.7594,-3.2037 4.3716,-1.7465 l 14.2412,12.7737 18.5819,-4.4956 c 2.1186,-0.5064 3.9065,1.6329 3.0177,3.6275"
         style="fill:#59c69f;fill-opacity:1;fill-rule:nonzero;stroke:none;stroke-width:0.103347"
         id="path1024" /><path
         d="m 1842.4314,1738.0952 -30.6942,4.4543 -12.6187,-48.5939 -45.6795,0.9715 -15.3884,-34.8281 -17.6311,7.7924 20.5868,46.5786 43.2922,-0.9301 13.1251,50.5575 46.1859,-6.6969 -1.1781,-19.3053"
         style="fill:#59c69f;fill-opacity:1;fill-rule:nonzero;stroke:none;stroke-width:0.103347"
         id="path1026" /><path
         d="m 1908.2471,924.06974 -23.2273,20.55578 -37.204,-33.72223 -37.6598,25.86784 -31.9653,-20.69014 -10.4691,16.18419 42.7444,27.66608 35.6962,-24.51398 38.7015,35.08641 34.9521,-30.93185 -11.5687,-15.5021"
         style="fill:#1b3659;fill-opacity:1;fill-rule:nonzero;stroke:none;stroke-width:0.103347"
         id="path1028" /><path
         d="m 502.38869,498.12376 c 1.97393,17.51737 4.33025,35.41713 12.46368,51.04324 9.88001,19.00557 27.23202,32.70943 42.40341,47.80847 28.33783,28.21382 50.14412,62.97986 63.23822,100.79464 10.11771,29.2473 15.16106,60.40651 29.11294,88.02092 8.51582,16.86628 20.13206,31.94465 29.80537,48.17018 22.86043,38.35219 35.31378,83.66999 66.31798,115.76967 5.96314,-38.9206 -5.82879,-80.21819 -31.42792,-110.08556 -7.63737,-8.89821 -16.49424,-16.9283 -22.31269,-27.11834 -10.5621,-18.50951 -9.60097,-41.08056 -10.84113,-62.35977 -2.32532,-39.99542 -13.59018,-79.44309 -32.74044,-114.60185 -20.34908,-37.36005 -49.71006,-70.62756 -60.58219,-111.75979 -8.15411,-30.82851 -5.72545,-65.40852 -23.10847,-92.1238 -1.88092,-2.89373 -4.04088,-5.79779 -4.4956,-9.22892 -0.25837,-1.92226 0.0413,-3.87552 0.34104,-5.78745 0.38239,-2.48033 0.77511,-4.971 1.16783,-7.45134 3.94786,-25.22708 8.04042,-57.32676 -13.64185,-76.20831 -15.0267,-13.09411 -34.36298,-13.38348 -45.16278,3.99954 -10.8618,17.50704 -9.90067,43.1165 -9.09456,62.8145 1.34351,32.80244 4.85732,65.69789 8.55716,98.30397"
         style="fill:#43927a;fill-opacity:1;fill-rule:nonzero;stroke:none;stroke-width:0.103347"
         id="path1032" /><path
         d="m 463.33373,518.42118 c 8.43315,29.20595 21.52725,57.02705 28.08981,86.7084 6.35586,28.79256 6.40753,58.55659 6.4282,88.05191 0.0207,32.31671 0.0517,64.63342 0.0723,96.95012 0.0103,20.11139 0.031,40.3468 3.35879,60.17915 7.15163,42.69278 29.3403,82.17145 33.10215,125.28795 1.62255,18.6542 -0.25837,37.50479 1.7879,56.10729 1.16783,10.6241 3.8962,21.4755 8.81553,30.9112 5.29138,10.1383 19.91503,9.6939 24.71035,-0.6925 10.77912,-23.3565 17.61038,-48.5939 13.25946,-73.61427 -2.61469,-15.00603 -9.11524,-28.99925 -13.97256,-43.43687 -21.60993,-64.28204 -10.13837,-135.447 -26.85997,-201.18623 -5.04335,-19.84269 -12.67038,-39.30299 -13.55917,-59.75542 -2.12895,-48.96596 34.43533,-93.68435 31.08688,-142.57796 -2.74904,-40.08843 -31.57261,-73.26292 -43.66425,-111.57377 -6.77958,-21.44457 -8.22644,-44.336 -15.48143,-65.61521 -5.63242,-16.54591 -18.7472,-36.62629 -39.10662,-31.60362 -19.32595,4.76432 -13.48683,20.53512 -12.62904,35.61349 2.92473,50.98123 0.17569,100.44326 14.56163,150.24634"
         style="fill:#38816a;fill-opacity:1;fill-rule:nonzero;stroke:none;stroke-width:0.103347"
         id="path1034" /><path
         d="m 419.09075,491.65422 c 0.84744,15.18172 3.41046,30.43578 1.29184,45.49349 -1.79825,12.71172 -6.85193,24.68967 -10.46909,36.99834 -6.76925,23.07746 -8.44347,47.30207 -10.08669,71.29932 -2.98674,43.6229 -5.96314,87.2458 -8.93955,130.86871 -4.64029,67.81651 -9.29092,135.81905 -21.97164,202.58141 -3.52414,18.54051 -7.47201,38.63121 0.85778,55.55951 1.75691,3.5655 5.21904,7.348 9.00156,6.1595 2.69736,-0.8474 4.02021,-3.8135 5.00201,-6.4799 27.71775,-75.31949 38.18683,-156.4058 69.12902,-230.45415 7.41,-17.74474 16.02917,-35.18976 19.86335,-54.02998 4.60929,-22.63306 2.07729,-45.99989 1.47787,-69.08768 -0.84745,-33.10215 2.37699,-66.46267 11.51289,-98.28331 4.78498,-16.64925 11.19252,-32.92645 13.8072,-50.0511 3.27611,-21.36189 0.52708,-43.1165 -1.5192,-64.62308 -3.9272,-41.34926 -5.26038,-82.94656 -3.98921,-124.46118 0.75444,-24.41064 -19.85302,-23.76988 -33.49486,-8.77419 -9.5493,10.48976 -9.45628,22.00265 -12.73239,35.05541 -10.72746,42.85814 -31.34525,75.76392 -28.74089,122.22888"
         style="fill:#43927a;fill-opacity:1;fill-rule:nonzero;stroke:none;stroke-width:0.103347"
         id="path1036" /><path
         d="m 547.80983,425.4706 c 18.22014,29.27829 54.51571,45.91721 66.16296,78.38894 2.96607,8.25745 4.12356,17.14532 7.74071,25.1444 8.04042,17.75507 26.32256,27.7901 44.29466,35.95453 2.49067,1.13682 5.33272,-0.67175 5.36373,-3.42079 0.062,-4.36126 -2.00494,-8.52616 -5.6221,-10.96515 -13.84854,-9.32193 -24.36929,-23.56319 -29.05093,-39.62337 -5.54975,-19.02624 -3.14176,-39.88173 -10.04536,-58.46358 -5.78745,-15.59511 -17.71373,-28.34816 -23.31515,-44.01562 -5.11569,-14.3136 -4.57829,-29.96039 -6.98628,-44.98709 -2.40799,-15.01636 -9.08423,-30.96285 -22.87076,-37.31871 -49.90642,-22.99478 -37.4324,80.39388 -25.67148,99.30644"
         style="fill:#38816a;fill-opacity:1;fill-rule:nonzero;stroke:none;stroke-width:0.103347"
         id="path1038" /><path
         d="m 340.24708,435.13357 c 0.7751,-14.14825 -1.38486,-28.98892 4.15456,-42.03136 3.54481,-8.35046 9.91101,-15.0887 15.15071,-22.48837 18.36482,-25.99185 25.03073,-62.80417 53.25488,-77.42781 1.86025,-0.97147 3.93753,-1.83959 6.00448,-1.44687 2.89372,0.53741 4.78498,3.32779 5.9528,6.03549 6.91394,16.12218 -0.84744,34.2803 -5.4464,51.21893 -0.80611,2.96607 -1.47787,6.26285 -0.0723,8.99122 1.56054,2.99707 5.10535,4.29924 7.52368,6.65556 4.81599,4.68164 4.36126,12.44302 3.41046,19.11926 -2.39765,16.64925 -5.75644,33.16415 -10.07636,49.43102 -2.439,9.21858 -5.26038,18.51984 -10.58277,26.43624 -5.83912,8.72252 -14.3446,15.2334 -22.29201,22.07499 -35.14843,30.22909 -62.0704,69.97647 -77.14878,113.86808 -3.25544,9.50795 -6.16983,19.54298 -12.90808,26.98398 -6.73824,7.44101 -18.7472,11.26486 -26.95298,5.49808 -5.83912,-4.11322 18.07545,-42.58943 20.86583,-47.19872 7.96807,-13.18712 8.07142,-24.65867 12.57736,-39.29265 11.0375,-35.88219 34.47667,-67.9922 36.58496,-106.42707"
         style="fill:#43927a;fill-opacity:1;fill-rule:nonzero;stroke:none;stroke-width:0.103347"
         id="path1040" /><path
         d="m 368.06817,418.77369 c -5.21904,13.49716 -10.48975,27.17001 -12.20531,41.54562 -1.91193,15.98783 0.62008,32.32704 -2.10829,48.19086 -3.50347,20.39042 -15.39875,38.33152 -21.27921,58.16387 -4.25791,14.32394 -5.30172,29.37131 -7.8544,44.0983 -7.29632,42.1037 -27.08733,83.24627 -21.41356,125.598 1.24016,9.20824 5.39473,19.94603 14.54096,21.51691 8.27812,1.42619 15.81214,-6.14917 17.96177,-14.2826 2.14962,-8.13343 0.54774,-16.71126 -0.0413,-25.10306 -1.65356,-23.40817 5.02268,-47.31241 18.56118,-66.46266 13.00109,-18.40616 31.87231,-32.2547 43.57123,-51.50831 14.35494,-23.6252 16.30821,-52.4591 23.6252,-79.12271 14.57197,-53.01717 51.09491,-99.27543 57.76081,-153.86349 2.64569,-21.7236 -2.44933,-48.12884 -22.49871,-56.79968 -57.97785,-25.10307 -75.48488,74.05869 -88.62033,108.02895"
         style="fill:#38816a;fill-opacity:1;fill-rule:nonzero;stroke:none;stroke-width:0.103347"
         id="path1042" /><path
         d="M 469.43123,351.47391 H 602.4909 c 9.09456,0 15.81214,-8.50548 13.70385,-17.38301 L 567.69386,129.55642 c -1.50887,-6.3664 -7.18264,-10.85147 -13.71419,-10.85147 h -75.27819 -9.27025 -75.28853 c -6.52121,0 -12.19498,4.48507 -13.70385,10.85147 L 331.92762,334.0909 c -2.09795,8.87753 4.60929,17.38301 13.71419,17.38301 h 123.78942"
         style="fill:#f35f52;fill-opacity:1;fill-rule:nonzero;stroke:none;stroke-width:0.103347"
         id="path1044" /><path
         d="m 506.86362,1399.9945 c 85.04451,-5.3534 158.31776,59.404 163.66082,144.6242 5.33272,85.2306 -59.28002,158.6588 -144.33487,164.0122 -85.04451,5.3431 -158.31776,-59.4144 -163.66081,-144.6346 -5.33272,-85.2305 59.29036,-158.6588 144.33486,-164.0018 z m 9.66298,334.897 c 99.52347,0 180.20672,-80.8486 180.20672,-180.5788 0,-99.7302 -80.68325,-180.5788 -180.20672,-180.5788 -99.52347,0 -180.20672,80.8486 -180.20672,180.5788 0,99.7302 80.68325,180.5788 180.20672,180.5788"
         style="fill:#1e4150;fill-opacity:1;fill-rule:nonzero;stroke:none;stroke-width:0.103347"
         id="path1058" /><path
         d="m 1203.7966,1409.5128 -48.0462,0.7854 c 0,0 0.8061,-18.2615 21.9303,-19.2123 25.7439,-1.1678 26.1159,18.4269 26.1159,18.4269"
         style="fill:#ffffff;fill-opacity:1;fill-rule:nonzero;stroke:none;stroke-width:0.103347"
         id="path1062" /></g></g></svg>
